HIERARCHY
ROOT Hips
{
	OFFSET -0.001795 -0.223333 0.028219
	CHANNELS 6 Xposition Yposition Zposition Zrotation Yrotation Xrotation 
	JOINT LeftUpLeg
	{
		OFFSET 0.069520 -0.091406 -0.006815
		CHANNELS 3 Zrotation Yrotation Xrotation
		JOINT LeftLeg
		{
			OFFSET 0.034277 -0.375199 -0.004496
			CHANNELS 3 Zrotation Yrotation Xrotation
			JOINT LeftFoot
			{
				OFFSET -0.013596 -0.397961 -0.043693
				CHANNELS 3 Zrotation Yrotation Xrotation
				JOINT LeftToe
				{
					OFFSET 0.026358 -0.055791 0.119288
					CHANNELS 3 Zrotation Yrotation Xrotation
					End Site
					{
						OFFSET 0.000000 0.000000 0.000000
					}
				}
			}
		}
	}
	JOINT RightUpLeg
	{
		OFFSET -0.067670 -0.090522 -0.004320
		CHANNELS 3 Zrotation Yrotation Xrotation
		JOINT RightLeg
		{
			OFFSET -0.038290 -0.382569 -0.008850
			CHANNELS 3 Zrotation Yrotation Xrotation
			JOINT RightFoot
			{
				OFFSET 0.015774 -0.398415 -0.042312
				CHANNELS 3 Zrotation Yrotation Xrotation
				JOINT RightToe
				{
					OFFSET -0.025372 -0.048144 0.123348
					CHANNELS 3 Zrotation Yrotation Xrotation
					End Site
					{
						OFFSET 0.000000 0.000000 0.000000
					}
				}
			}
		}
	}
	JOINT Spine
	{
		OFFSET -0.002533 0.108963 -0.026696
		CHANNELS 3 Zrotation Yrotation Xrotation
		JOINT Spine1
		{
			OFFSET 0.005487 0.135180 0.001092
			CHANNELS 3 Zrotation Yrotation Xrotation
			JOINT Spine2
			{
				OFFSET 0.001457 0.052922 0.025425
				CHANNELS 3 Zrotation Yrotation Xrotation
				JOINT Neck
				{
					OFFSET -0.002778 0.213870 -0.042857
					CHANNELS 3 Zrotation Yrotation Xrotation
					JOINT Head
					{
						OFFSET 0.005152 0.064970 0.051349
						CHANNELS 3 Zrotation Yrotation Xrotation
						End Site
						{
							OFFSET 0.000000 0.000000 0.000000
						}
					}
				}
				JOINT LeftShoulder
				{
					OFFSET 0.078845 0.121749 -0.034090
					CHANNELS 3 Zrotation Yrotation Xrotation
					JOINT LeftArm
					{
						OFFSET 0.090977 0.030469 -0.008868
						CHANNELS 3 Zrotation Yrotation Xrotation
						JOINT LeftForeArm
						{
							OFFSET 0.259612 -0.012772 -0.027456
							CHANNELS 3 Zrotation Yrotation Xrotation
							JOINT LeftHand
							{
								OFFSET 0.249234 0.008986 -0.001171
								CHANNELS 3 Zrotation Yrotation Xrotation
								End Site
								{
									OFFSET 0.000000 0.000000 0.000000
								}
							}
						}
					}
				}
				JOINT RightShoulder
				{
					OFFSET -0.081759 0.118833 -0.038615
					CHANNELS 3 Zrotation Yrotation Xrotation
					JOINT RightArm
					{
						OFFSET -0.096012 0.032551 -0.009143
						CHANNELS 3 Zrotation Yrotation Xrotation
						JOINT RightForeArm
						{
							OFFSET -0.253742 -0.013329 -0.021401
							CHANNELS 3 Zrotation Yrotation Xrotation
							JOINT RightHand
							{
								OFFSET -0.255298 0.007772 -0.005559
								CHANNELS 3 Zrotation Yrotation Xrotation
								End Site
								{
									OFFSET 0.000000 0.000000 0.000000
								}
							}
						}
					}
				}
			}
		}
	}
}
MOTION
Frames: 16
Frame Time: 0.050000
-0.060041 0.730581 0.030799 -2.807991 12.972664 8.932958 13.794694 -3.385052 -66.101750 -11.796531 3.978947 66.467084 6.077741 10.188046 -12.447606 0.000000 0.000000 0.000000 -10.228118 -1.247813 -37.745109 3.022415 -7.043003 83.219180 -10.527748 -27.219122 -12.321486 0.000000 0.000000 0.000000 -14.722277 1.506782 66.927323 -8.250829 3.781161 -0.229474 3.219112 11.151654 12.829288 -2.963977 4.759337 -27.499381 0.000000 0.000000 0.000000 2.537991 -37.567233 11.840606 -16.517643 -40.528287 0.751998 90.384069 -4.932173 -8.039860 0.000000 0.000000 0.000000 -5.115979 31.518923 10.912916 38.201712 37.423432 8.673246 -87.993344 29.255604 -18.848321 0.000000 0.000000 0.000000 
-0.073646 0.736240 0.022101 -2.324603 13.043117 8.244644 12.960678 -3.702187 -64.119480 -9.945715 2.225666 64.005678 5.633560 8.928095 -11.977960 0.000000 0.000000 0.000000 -8.722847 -0.630108 -35.955157 1.694745 -5.614087 82.003733 -10.093161 -26.553810 -14.884685 0.000000 0.000000 0.000000 -13.837856 0.919093 64.920239 -8.135654 3.741815 0.125586 2.707879 9.927044 12.828095 -4.023251 5.156298 -28.183439 0.000000 0.000000 0.000000 2.115459 -35.490823 11.272057 -19.355064 -40.394294 1.575267 89.448152 -6.250500 -8.905441 0.000000 0.000000 0.000000 -3.270329 31.639017 11.505861 40.011827 35.798067 8.341487 -82.124058 34.670097 -21.918523 0.000000 0.000000 0.000000 
-0.090780 0.744077 0.012353 -1.688179 12.779041 7.114028 12.462944 -3.584935 -61.154655 -7.856228 0.528596 59.727604 4.731263 6.585237 -10.883284 0.000000 0.000000 0.000000 -7.177921 -0.038860 -34.466300 0.320384 -3.957706 80.975935 -9.457215 -24.812903 -16.528989 0.000000 0.000000 0.000000 -13.703480 0.931112 64.074517 -8.153910 3.769980 0.249176 2.735729 9.216775 12.462060 -4.572654 5.329923 -28.426438 0.000000 0.000000 0.000000 1.335762 -33.404932 10.710207 -22.724875 -40.219953 2.549493 88.483411 -8.629584 -10.814256 0.000000 0.000000 0.000000 -1.540909 31.092421 11.782985 41.555843 34.093953 7.929718 -76.264762 40.559610 -24.554556 0.000000 0.000000 0.000000 
-0.111567 0.756361 0.000844 -1.535655 12.848723 5.737446 12.242039 -3.360759 -57.740602 -4.989198 -1.425177 54.722600 3.242501 3.633904 -8.064317 0.000000 0.000000 0.000000 -5.014305 0.658395 -32.517180 -0.199001 -3.294362 77.918032 -9.193699 -24.572448 -18.722268 0.000000 0.000000 0.000000 -13.081861 0.503456 63.968614 -8.245651 3.811228 -0.208252 2.639477 8.067876 12.169838 -5.811488 5.761951 -29.372956 0.000000 0.000000 0.000000 -0.399118 -31.384306 10.311961 -25.602664 -39.649908 3.380294 89.100262 -12.128681 -13.774145 0.000000 0.000000 0.000000 0.102574 30.863444 12.073636 42.655769 33.420377 7.755243 -71.110952 45.188304 -26.021665 0.000000 0.000000 0.000000 
-0.134829 0.770196 -0.012767 -1.529477 12.225085 4.832588 12.449708 -2.825975 -55.200068 -2.700467 -2.430798 49.542400 1.518202 1.399423 -3.904749 0.000000 0.000000 0.000000 -3.090569 1.274551 -31.687396 0.222088 -3.142146 74.909982 -9.270621 -25.171091 -18.736591 0.000000 0.000000 0.000000 -12.982212 0.673693 63.560930 -8.380719 3.863095 -0.823423 2.987339 8.046418 12.111541 -6.515641 6.049954 -30.306821 0.000000 0.000000 0.000000 -1.526318 -30.136335 9.994148 -28.215027 -39.027059 3.994765 89.070720 -14.525814 -16.006404 0.000000 0.000000 0.000000 1.133840 30.634846 12.264225 43.353541 32.967620 7.683005 -66.837183 48.010976 -25.997020 0.000000 0.000000 0.000000 
-0.159040 0.784538 -0.027738 -1.593447 11.599023 3.629941 12.466051 -2.390046 -52.362291 0.180148 -3.614577 45.198770 -0.618331 -0.959241 0.709032 0.000000 0.000000 0.000000 -1.387875 1.781672 -30.735198 0.770498 -3.039499 71.221008 -9.320628 -25.978332 -19.769347 0.000000 0.000000 0.000000 -12.589888 0.654351 63.101904 -8.617346 3.952095 -1.664820 2.926267 7.433518 12.674805 -7.601851 6.443476 -31.673670 0.000000 0.000000 0.000000 -2.119854 -28.787320 9.599657 -30.318938 -38.268408 4.387552 89.961473 -16.230407 -17.667333 0.000000 0.000000 0.000000 3.061582 30.767477 12.817426 42.159268 33.005630 7.173605 -61.607697 49.650782 -24.641560 0.000000 0.000000 0.000000 
-0.181981 0.798513 -0.042380 -1.463960 11.941390 2.448833 12.163964 -2.407516 -50.226643 1.816297 -4.187837 41.937229 -2.347395 -2.101600 4.965175 0.000000 0.000000 0.000000 -0.559622 1.934945 -29.501338 1.923595 -3.955375 68.037253 -9.324460 -26.214272 -19.534209 0.000000 0.000000 0.000000 -12.381987 0.377567 63.353703 -8.673863 3.988088 -1.808309 2.972736 7.721391 12.429538 -7.682168 6.492067 -32.527499 0.000000 0.000000 0.000000 -3.507278 -28.957178 9.738800 -30.930730 -37.371034 4.435412 89.123632 -18.607828 -19.822833 0.000000 0.000000 0.000000 3.984327 30.805430 13.110357 40.887031 32.893746 6.799759 -56.612840 49.885653 -22.400939 0.000000 0.000000 0.000000 
-0.202365 0.812235 -0.055066 -1.057015 12.474560 1.241184 11.334204 -2.635792 -47.956201 3.967227 -4.961634 38.979553 -4.286676 -3.053179 9.620969 0.000000 0.000000 0.000000 -0.030878 1.963683 -27.693247 2.694744 -4.453600 64.143682 -9.125061 -25.786299 -19.447843 0.000000 0.000000 0.000000 -12.100354 -0.010577 63.739139 -9.087993 4.171661 -2.219849 3.120322 7.951162 12.148189 -8.361679 6.778178 -33.326774 0.000000 0.000000 0.000000 -5.744830 -29.842016 10.254395 -31.023239 -36.267990 4.366044 87.838098 -20.825011 -21.529584 0.000000 0.000000 0.000000 4.708281 30.752575 13.275641 39.383446 32.933318 6.444887 -51.559247 49.585483 -19.921346 0.000000 0.000000 0.000000 
-0.220181 0.824189 -0.065282 -0.629834 13.025881 0.121032 10.980282 -2.696808 -46.113713 4.642144 -5.094569 37.115553 -6.036735 -3.906780 13.369663 0.000000 0.000000 0.000000 0.512948 1.982941 -25.928510 3.135742 -4.721439 61.202722 -9.123442 -25.667456 -17.957824 0.000000 0.000000 0.000000 -11.827587 -0.384386 63.629119 -9.324229 4.287377 -2.370188 2.805408 8.156130 11.907232 -8.340263 6.796779 -34.172800 0.000000 0.000000 0.000000 -8.463900 -30.364466 10.691868 -30.054506 -35.723682 4.208680 84.837220 -23.029443 -22.465444 0.000000 0.000000 0.000000 5.722308 31.241167 13.802971 37.310062 32.253013 5.699419 -46.842504 48.414606 -17.345995 0.000000 0.000000 0.000000 
-0.235921 0.834061 -0.072940 0.042564 14.387753 -1.058182 9.400487 -3.250586 -43.825065 6.413652 -5.719062 34.902011 -7.919649 -5.167491 16.265748 0.000000 0.000000 0.000000 0.674225 1.849909 -23.815984 3.722879 -5.386048 58.479840 -9.354539 -26.528889 -16.611692 0.000000 0.000000 0.000000 -11.552858 -1.078572 64.103322 -9.772596 4.481221 -2.862445 2.866998 7.798339 11.605583 -9.136083 7.049413 -35.471272 0.000000 0.000000 0.000000 -11.180277 -31.415130 11.491508 -28.918048 -34.607796 3.914585 81.028648 -24.501067 -22.119562 0.000000 0.000000 0.000000 6.238431 31.322323 13.892189 36.118177 31.862362 5.287130 -41.410740 48.159333 -14.970793 0.000000 0.000000 0.000000 
-0.250466 0.840150 -0.077980 0.488943 15.871681 -1.690073 9.363541 -3.349164 -42.516718 6.569622 -5.677942 33.426869 -9.057658 -5.860974 17.857247 0.000000 0.000000 0.000000 0.964795 1.758095 -21.973181 4.010817 -5.796704 55.852615 -9.450140 -27.508607 -16.797507 0.000000 0.000000 0.000000 -11.371633 -1.664820 63.201100 -9.985396 4.593152 -2.725581 2.752564 7.240582 11.177195 -9.861642 7.314861 -35.627280 0.000000 0.000000 0.000000 -13.715674 -31.675625 11.972311 -27.235356 -33.443657 3.490866 77.796526 -26.479346 -22.304644 0.000000 0.000000 0.000000 7.526879 31.768244 14.473383 35.548266 31.488723 4.989646 -37.642611 47.352487 -13.174649 0.000000 0.000000 0.000000 
-0.264450 0.844116 -0.081228 0.828220 18.432102 -2.238160 8.365950 -3.876346 -41.087924 7.273922 -5.802914 31.290928 -10.187789 -6.590946 19.011753 0.000000 0.000000 0.000000 0.846171 1.570064 -20.619610 4.732052 -6.850414 53.451412 -9.851250 -29.718953 -16.833354 0.000000 0.000000 0.000000 -11.268460 -2.589262 62.573691 -10.241781 4.700363 -2.948595 2.873129 6.855449 11.096586 -10.038447 7.413000 -35.714477 0.000000 0.000000 0.000000 -14.645481 -32.505354 12.447348 -25.729815 -33.193963 3.217733 73.077237 -26.712129 -20.662381 0.000000 0.000000 0.000000 8.010198 32.237771 14.846028 35.631093 31.307645 4.929034 -34.606153 46.411929 -11.641881 0.000000 0.000000 0.000000 
-0.277906 0.845435 -0.083735 0.789509 20.343865 -2.732478 8.843024 -3.840708 -39.996300 6.846663 -5.464551 29.719934 -10.290264 -6.520543 18.905625 0.000000 0.000000 0.000000 1.223848 1.504905 -18.865306 5.883875 -7.856583 50.971089 -10.133094 -31.961369 -17.588483 0.000000 0.000000 0.000000 -11.695079 -2.908280 61.571381 -10.507228 4.804613 -3.287720 3.233905 6.902789 11.324462 -10.758605 7.768412 -35.675259 0.000000 0.000000 0.000000 -15.335350 -32.834669 12.553820 -23.581363 -32.764933 2.786666 69.653051 -27.208644 -19.832707 0.000000 0.000000 0.000000 8.276535 32.341974 15.033541 36.461681 32.101363 5.332138 -32.821787 44.924451 -10.460766 0.000000 0.000000 0.000000 
-0.290128 0.845666 -0.086219 0.716197 22.099150 -3.264908 9.003640 -3.870163 -38.976836 6.932631 -5.381043 28.520224 -11.139943 -7.203670 19.537258 0.000000 0.000000 0.000000 1.376197 1.412290 -17.201258 7.437822 -9.077855 48.906430 -10.741738 -34.486000 -17.082661 0.000000 0.000000 0.000000 -12.046228 -3.252872 60.933777 -10.767865 4.910780 -3.507138 3.700530 7.189360 11.442584 -10.615063 7.752612 -36.316485 0.000000 0.000000 0.000000 -15.625511 -33.887010 12.923399 -21.913419 -32.479319 2.487902 66.190402 -25.178124 -17.406021 0.000000 0.000000 0.000000 7.964579 32.750602 15.179906 37.034571 32.456811 5.611963 -30.494526 43.129019 -9.091341 0.000000 0.000000 0.000000 
-0.300355 0.845209 -0.088871 0.770906 23.515770 -3.418001 8.928577 -4.028146 -38.691078 7.107380 -5.545737 28.476248 -11.412938 -7.498483 19.508240 0.000000 0.000000 0.000000 1.308690 1.335135 -16.494866 8.813038 -10.080071 47.339600 -11.462289 -37.278965 -16.846878 0.000000 0.000000 0.000000 -12.080353 -3.622751 60.345410 -11.363309 5.166521 -3.368699 3.839349 7.220485 11.477458 -10.789056 7.864462 -36.201019 0.000000 0.000000 0.000000 -15.999726 -34.990518 13.445739 -19.926749 -32.442049 2.148540 63.668570 -22.862815 -15.183458 0.000000 0.000000 0.000000 7.488460 33.557403 15.422178 37.981962 33.371092 6.183202 -31.285106 40.242594 -8.651957 0.000000 0.000000 0.000000 
-0.308382 0.846620 -0.091620 1.133846 25.191453 -3.396178 8.411771 -4.292929 -38.191521 7.264540 -5.608812 27.966841 -12.234151 -7.747542 20.698355 0.000000 0.000000 0.000000 1.200441 1.274347 -16.612079 9.889910 -11.035312 46.239624 -12.268791 -39.316096 -15.639266 0.000000 0.000000 0.000000 -12.655906 -3.831538 60.153956 -11.860008 5.361887 -3.446092 4.258918 7.482221 11.480759 -11.465763 8.164999 -36.344280 0.000000 0.000000 0.000000 -16.247717 -36.117733 13.908668 -19.435867 -32.675038 2.130110 62.177469 -20.777704 -13.593278 0.000000 0.000000 0.000000 6.682670 34.273441 15.509223 38.450163 34.108568 6.642894 -30.175502 38.004856 -7.756971 0.000000 0.000000 0.000000 
